# xmcd
#
# Track frame offsets:
# 150
# 14472
# 31182
# 51537
# 67767
# 85740
# 100735
# 117155
# 135052
# 148060
# 167175
#
# Disc length: 2465 seconds
#
#
# Revision: 0
# Processed by: cddbd v1.4PL0 Copyright (c) Steve Scherf et al.
# Submitted via: FreeRIP 2.11 
#
DISCID=88099f0b
DTITLE=CrossCountry, The Band - Givin' Livin'
DYEAR=1998
DGENRE=Christian Country
TTITLE0=CROSSROAD
TTITLE1=MY CHOICE
TTITLE2=STRANGER
TTITLE3=GIVIN' LIVIN'
TTITLE4=HANG ON TO THE CROSS
TTITLE5=BE THAT MAN
TTITLE6=DON'T YOU KNOW WHAT I MEAN
TTITLE7=WHEN IT COMES TO YOU
TTITLE8=NO LONE RANGERS
TTITLE9=YOU BETTER BELIEVE
TTITLE10=MY CHOICE (REMIX)
EXTD=CrossCrountry\nRt 2 Box 55\nGroesbeck, TX 76642
EXTT0=
EXTT1=
EXTT2=
EXTT3=
EXTT4=
EXTT5=
EXTT6=
EXTT7=
EXTT8=
EXTT9=
EXTT10=
PLAYORDER=
